REM DIRINDEX 1\2,1\3,1\4
REM DIRNAME folder01,folder02,folder03,folder04
TITLE ""
FILE "070 070_TOEFL_3900.mp3" MP3
  TRACK 01 AUDIO
    TITLE "2:cjc151_3029"
    INDEX 01 00:00:00
  TRACK 02 AUDIO
    TITLE "0:"
    INDEX 01 00:01:22
  TRACK 03 AUDIO
    TITLE "3:cjc151_3030"
    INDEX 01 00:03:00
  TRACK 04 AUDIO
    TITLE "0:"
    INDEX 01 00:06:22
  TRACK 05 AUDIO
    TITLE "2:cjc151_3031"
    INDEX 01 00:08:01
  TRACK 06 AUDIO
    TITLE "0:"
    INDEX 01 00:09:12
  TRACK 07 AUDIO
    TITLE "3:cjc151_3032"
    INDEX 01 00:10:65
  TRACK 08 AUDIO
    TITLE "0:"
    INDEX 01 00:15:09
  TRACK 09 AUDIO
    TITLE "2:cjc151_3033"
    INDEX 01 00:16:63
  TRACK 10 AUDIO
    TITLE "0:"
    INDEX 01 00:17:63
  TRACK 11 AUDIO
    TITLE "3:cjc151_3034"
    INDEX 01 00:19:44
  TRACK 12 AUDIO
    TITLE "0:"
    INDEX 01 00:22:52
  TRACK 13 AUDIO
    TITLE "2:cjc151_3035"
    INDEX 01 00:24:33
  TRACK 14 AUDIO
    TITLE "0:"
    INDEX 01 00:25:45
  TRACK 15 AUDIO
    TITLE "3:cjc151_3036"
    INDEX 01 00:27:22
  TRACK 16 AUDIO
    TITLE "0:"
    INDEX 01 00:32:27
  TRACK 17 AUDIO
    TITLE "2:cjc151_3037"
    INDEX 01 00:34:08
  TRACK 18 AUDIO
    TITLE "0:"
    INDEX 01 00:35:00
  TRACK 19 AUDIO
    TITLE "3:cjc151_3038"
    INDEX 01 00:36:58
  TRACK 20 AUDIO
    TITLE "0:"
    INDEX 01 00:40:52
  TRACK 21 AUDIO
    TITLE "2:cjc151_3039"
    INDEX 01 00:42:39
  TRACK 22 AUDIO
    TITLE "0:"
    INDEX 01 00:43:58
  TRACK 23 AUDIO
    TITLE "3:cjc151_3040"
    INDEX 01 00:45:39
  TRACK 24 AUDIO
    TITLE "0:"
    INDEX 01 00:50:19
  TRACK 25 AUDIO
    TITLE "2:cjc151_3041"
    INDEX 01 00:51:73
  TRACK 26 AUDIO
    TITLE "0:"
    INDEX 01 00:52:63
  TRACK 27 AUDIO
    TITLE "3:cjc151_3042"
    INDEX 01 00:54:44
  TRACK 28 AUDIO
    TITLE "0:"
    INDEX 01 00:57:41
  TRACK 29 AUDIO
    TITLE "2:cjc151_3043"
    INDEX 01 00:59:18
  TRACK 30 AUDIO
    TITLE "0:"
    INDEX 01 01:00:15
  TRACK 31 AUDIO
    TITLE "3:cjc151_3044"
    INDEX 01 01:01:68
  TRACK 32 AUDIO
    TITLE "0:"
    INDEX 01 01:06:18
  TRACK 33 AUDIO
    TITLE "2:cjc151_3045"
    INDEX 01 01:07:72
  TRACK 34 AUDIO
    TITLE "0:"
    INDEX 01 01:09:16
  TRACK 35 AUDIO
    TITLE "3:cjc151_3046"
    INDEX 01 01:10:69
  TRACK 36 AUDIO
    TITLE "0:"
    INDEX 01 01:15:05
  TRACK 37 AUDIO
    TITLE "2:cjc151_3047"
    INDEX 01 01:16:60
  TRACK 38 AUDIO
    TITLE "0:"
    INDEX 01 01:17:71
  TRACK 39 AUDIO
    TITLE "3:cjc151_3048"
    INDEX 01 01:19:48
  TRACK 40 AUDIO
    TITLE "0:"
    INDEX 01 01:22:66
  TRACK 41 AUDIO
    TITLE "2:cjc151_3049"
    INDEX 01 01:24:41
  TRACK 42 AUDIO
    TITLE "0:"
    INDEX 01 01:25:41
  TRACK 43 AUDIO
    TITLE "3:cjc151_3050"
    INDEX 01 01:27:18
  TRACK 44 AUDIO
    TITLE "0:"
    INDEX 01 01:31:38
  TRACK 45 AUDIO
    TITLE "2:cjc151_3051"
    INDEX 01 01:33:15
  TRACK 46 AUDIO
    TITLE "0:"
    INDEX 01 01:34:54
  TRACK 47 AUDIO
    TITLE "3:cjc151_3052"
    INDEX 01 01:36:35
  TRACK 48 AUDIO
    TITLE "0:"
    INDEX 01 01:40:25
  TRACK 49 AUDIO
    TITLE "2:cjc151_3053"
    INDEX 01 01:42:04
  TRACK 50 AUDIO
    TITLE "0:"
    INDEX 01 01:42:65
  TRACK 51 AUDIO
    TITLE "3:cjc151_3054"
    INDEX 01 01:44:44
  TRACK 52 AUDIO
    TITLE "0:"
    INDEX 01 01:48:16
  TRACK 53 AUDIO
    TITLE "2:cjc151_3055"
    INDEX 01 01:49:73
  TRACK 54 AUDIO
    TITLE "0:"
    INDEX 01 01:51:09
  TRACK 55 AUDIO
    TITLE "3:cjc151_3056"
    INDEX 01 01:52:59
  TRACK 56 AUDIO
    TITLE "0:"
    INDEX 01 01:56:47
  TRACK 57 AUDIO
    TITLE "2:cjc151_3057"
    INDEX 01 01:58:27
  TRACK 58 AUDIO
    TITLE "0:"
    INDEX 01 01:59:22
  TRACK 59 AUDIO
    TITLE "3:cjc151_3058"
    INDEX 01 02:01:01
  TRACK 60 AUDIO
    TITLE "0:"
    INDEX 01 02:05:66
  TRACK 61 AUDIO
    TITLE "2:cjc151_3059"
    INDEX 01 02:07:43
  TRACK 62 AUDIO
    TITLE "0:"
    INDEX 01 02:08:50
  TRACK 63 AUDIO
    TITLE "3:cjc151_3060"
    INDEX 01 02:10:32
  TRACK 64 AUDIO
    TITLE "0:"
    INDEX 01 02:14:30
  TRACK 65 AUDIO
    TITLE "2:cjc151_3061"
    INDEX 01 02:16:07
  TRACK 66 AUDIO
    TITLE "0:"
    INDEX 01 02:17:30
  TRACK 67 AUDIO
    TITLE "3:cjc151_3062"
    INDEX 01 02:19:09
  TRACK 68 AUDIO
    TITLE "0:"
    INDEX 01 02:23:03
  TRACK 69 AUDIO
    TITLE "2:cjc151_3063"
    INDEX 01 02:25:00
  TRACK 70 AUDIO
    TITLE "0:"
    INDEX 01 02:26:11
  TRACK 71 AUDIO
    TITLE "3:cjc151_3064"
    INDEX 01 02:27:65
  TRACK 72 AUDIO
    TITLE "0:"
    INDEX 01 02:31:03
  TRACK 73 AUDIO
    TITLE "2:cjc151_3065"
    INDEX 01 02:32:49
  TRACK 74 AUDIO
    TITLE "0:"
    INDEX 01 02:33:50
  TRACK 75 AUDIO
    TITLE "3:cjc151_3066"
    INDEX 01 02:35:28
  TRACK 76 AUDIO
    TITLE "0:"
    INDEX 01 02:38:73
  TRACK 77 AUDIO
    TITLE "2:cjc151_3067"
    INDEX 01 02:40:52
  TRACK 78 AUDIO
    TITLE "0:"
    INDEX 01 02:41:62
  TRACK 79 AUDIO
    TITLE "3:cjc151_3068"
    INDEX 01 02:43:43
  TRACK 80 AUDIO
    TITLE "0:"
    INDEX 01 02:47:31
  TRACK 81 AUDIO
    TITLE "2:cjc151_3069"
    INDEX 01 02:49:18
  TRACK 82 AUDIO
    TITLE "0:"
    INDEX 01 02:50:41
  TRACK 83 AUDIO
    TITLE "3:cjc151_3070"
    INDEX 01 02:52:20
  TRACK 84 AUDIO
    TITLE "0:"
    INDEX 01 02:54:60
  TRACK 85 AUDIO
    TITLE "2:cjc151_3071"
    INDEX 01 02:56:38
  TRACK 86 AUDIO
    TITLE "0:"
    INDEX 01 02:57:63
  TRACK 87 AUDIO
    TITLE "3:cjc151_3072"
    INDEX 01 02:59:40
  TRACK 88 AUDIO
    TITLE "0:"
    INDEX 01 03:03:34
